<svg width="14" height="8" viewBox="0 0 14 8" fill="none" xmlns="http://www.w3.org/2000/svg">
    <path d="M0 0C0.570858 0 1.04269 0.007881 1.5824 0.126974C1.60747 0.132412 1.63254 0.137849 1.65837 0.143451C2.422 0.315803 3.08546 0.690574 3.65458 1.14277C3.68008 1.16221 3.70558 1.18164 3.73185 1.20167C4.00212 1.41569 4.20332 1.67755 4.40811 1.93636C4.42054 1.29736 4.43297 0.658362 4.44578 0C5.16218 0 5.16218 -7.35918e-08 5.43242 0.0337275C5.46527 0.0378118 5.49811 0.0418961 5.53194 0.0461041C6.74279 0.213044 7.77544 0.76792 8.55248 1.55544C8.66437 1.70209 8.77627 1.84875 8.89156 1.99985C8.90399 1.3399 8.91643 0.679948 8.92924 0C9.59356 0 9.59356 -5.43939e-08 9.88527 0.0376955C9.91875 0.0419664 9.95223 0.0462374 9.98673 0.0506378C11.2434 0.221331 12.3714 0.803433 13.12 1.67274C13.8395 2.53451 14.1293 3.59241 13.9468 4.63643C13.7354 5.65032 13.1072 6.54989 12.1317 7.17406C12.1029 7.19288 12.074 7.2117 12.0443 7.23109C11.1187 7.8074 10.0632 7.99939 8.92924 7.99939C8.9168 7.33944 8.90437 6.67949 8.89156 5.99954C8.76101 6.17239 8.76101 6.17239 8.62783 6.34872C8.55999 6.42252 8.49336 6.49312 8.42061 6.56299C8.40266 6.58046 8.38471 6.59792 8.36621 6.61591C8.31568 6.66471 8.26456 6.71307 8.21339 6.76139C8.19095 6.78263 8.16852 6.80386 8.1454 6.82574C7.42831 7.46449 6.42569 7.83032 5.40888 7.95971C5.37793 7.96377 5.34699 7.96783 5.31511 7.97201C5.01898 8.00653 4.75314 7.99939 4.44578 7.99939C4.43335 7.34991 4.42092 6.70044 4.40811 6.03128C4.28377 6.17794 4.15944 6.3246 4.03134 6.4757C3.14386 7.3339 2.0931 7.82275 0.753522 7.96765C0.50486 7.96765 0.256198 7.96765 0 7.96765C0 5.33832 0 2.709 0 0Z" fill="#F6B62B"/>
</svg>
